<?xml version="1.0" encoding="utf-8"?>
<!-- Generator: Adobe Illustrator 21.0.0, SVG Export Plug-In . SVG Version: 6.00 Build 0)  -->
<svg version="1.1" id="Capa_1" xmlns="http://www.w3.org/2000/svg" xmlns:xlink="http://www.w3.org/1999/xlink" x="0px" y="0px"
	 viewBox="0 0 168 118" style="enable-background:new 0 0 168 118;" xml:space="preserve">
<style type="text/css">
	.st0{display:none;fill:#F2F2F2;}
	.st1{fill:#11868A;}
	.st2{fill:#CCCCCC;}
	.st3{fill:#BE894A;}
	.st4{fill:#63300F;}
	.st5{fill:#F93752;}
	.st6{fill:#26120B;}
	.st7{fill:#FFFFFF;}
	.st8{fill:#FBA2A0;}
	.st9{fill:#4D1F03;}
	.st10{fill:none;stroke:#26120B;stroke-width:1.1559;stroke-linecap:round;stroke-linejoin:round;stroke-miterlimit:10;}
	.st11{fill:#D08D3E;}
	.st12{fill:#A0642F;}
	.st13{fill:#FAF3BB;}
	.st14{fill:#D9D39A;}
	.st15{fill:#58291A;}
	.st16{fill:#BEB986;}
	.st17{fill:#FFFFFF;stroke:#B3B3B3;stroke-width:1.3184;stroke-miterlimit:10;}
	.st18{fill:none;stroke:#A0642F;stroke-width:1.2664;stroke-linecap:round;stroke-linejoin:round;stroke-miterlimit:10;}
	.st19{fill:#FA5858;}
	.st20{fill:#99561E;}
	.st21{fill:#46341C;}
	.st22{fill:#513C20;}
	.st23{fill:none;stroke:#361A10;stroke-width:1.6757;stroke-miterlimit:10;}
	.st24{fill:#FFFFFF;stroke:#63300F;stroke-width:0.5878;stroke-miterlimit:10;}
	.st25{fill:#562819;}
	.st26{fill:#160F0E;}
</style>
<rect x="0" class="st0" width="425.2" height="369.2"/>
<g>
	<g>
		<g>
			<g>
				<g>
					<circle class="st1" cx="133.6" cy="39.4" r="24.1"/>
				</g>
				<g>
					<path class="st2" d="M127.7,54.7l16.5,6.4c8-3.9,13.5-12.1,13.5-21.7c0-3.2-0.6-6.2-1.7-9l-8.6-7.7l-6.4,4.9l-3.3,1.1l-2.5,7.8
						l-5.4,11.7L127.7,54.7z"/>
				</g>
			</g>
			<g>
				<path class="st3" d="M152,45.6c0,2.2-9.7,10.4-18.1,10.5c-8.4,0.1-17.4-8.9-17.4-10.7c0-1.8,3.1-9.3,4.4-11.5
					c2.5-4.5,7.3-7.5,12.8-7.5c5.6,0,10.4,3,13,7.5C148,35.9,152,43.3,152,45.6z"/>
				<path class="st3" d="M130.2,28c0,0-8.8-5.2-10.2-4.3c-1.4,0.9-0.1,12.7-0.1,12.7"/>
				<path class="st4" d="M128.1,28.7c0,0-4.1-2.6-4.7-2.2c-0.6,0.4-0.1,5.2-0.1,5.2s0.5-1,1.8-2C126.4,28.8,128.1,28.7,128.1,28.7z"
					/>
				<path class="st3" d="M137.3,27.8c0,0,8.9-5.7,10.3-4.9c1.4,0.8,0,12.2,0,12.2"/>
				<path class="st5" d="M138.7,42c0.3,2.7-4.1,3.1-4.8,4.9c-1-1.8-5.2-2.2-4.9-4.8c0.2-1.8,2.2-2.4,4.9-2.4
					C136.5,39.7,138.5,39.9,138.7,42z"/>
				
					<ellipse transform="matrix(1 -8.027403e-03 8.027403e-03 1 -0.2925 1.0906)" class="st6" cx="135.7" cy="37" rx="0.9" ry="0.9"/>
				
					<ellipse transform="matrix(1 -8.504573e-03 8.504573e-03 1 -0.3051 1.1515)" class="st7" cx="135.2" cy="36.5" rx="0.5" ry="0.5"/>
				
					<ellipse transform="matrix(1 -8.267177e-03 8.267177e-03 1 -0.3029 1.0906)" class="st6" cx="131.8" cy="37.2" rx="0.9" ry="0.9"/>
				
					<ellipse transform="matrix(1 -7.545495e-03 7.545495e-03 1 -0.2729 0.9918)" class="st7" cx="131.3" cy="36.7" rx="0.5" ry="0.5"/>
				<path class="st8" d="M129.7,42.5c0-1.1,1.1-1.9,2.5-2C133.6,40.6,129.7,43.6,129.7,42.5z"/>
				<g>
					<g>
						<path class="st3" d="M133.8,46.6c0.1,2.5,0.3,4.1,2.2,4.8c2.5,0.8,4.2-1.6,4.2-3.2"/>
						<path class="st9" d="M133.8,46.6c0,0,0,0.2,0.1,0.5c0.1,0.3,0.2,0.8,0.3,1.3c0.1,0.5,0.3,1.1,0.6,1.6c0.2,0.3,0.4,0.5,0.6,0.6
							c0.3,0.2,0.6,0.3,0.9,0.4c0.2,0.1,0.3,0.1,0.5,0.1c0.1,0,0.3,0,0.5,0c0.3,0,0.6-0.1,0.9-0.3c0.3-0.1,0.5-0.3,0.7-0.5
							c0.1-0.1,0.2-0.2,0.3-0.3c0.1-0.1,0.2-0.2,0.3-0.3c0.2-0.2,0.3-0.4,0.4-0.6c0.1-0.2,0.2-0.4,0.2-0.5c0.1-0.2,0.1-0.3,0.1-0.4
							c0-0.1,0-0.1,0-0.1s0,0,0,0.1c0,0.1,0,0.2,0,0.4c0,0.2,0,0.4-0.1,0.6c-0.1,0.2-0.1,0.5-0.3,0.7c-0.1,0.3-0.3,0.5-0.5,0.8
							c-0.2,0.3-0.5,0.5-0.8,0.7c-0.3,0.2-0.7,0.3-1.1,0.4c-0.2,0-0.4,0-0.6,0c-0.2,0-0.5,0-0.6-0.1c-0.4-0.1-0.8-0.3-1.1-0.5
							c-0.3-0.2-0.6-0.6-0.8-0.9c-0.2-0.3-0.3-0.7-0.4-1c-0.1-0.3-0.1-0.6-0.1-0.9c0-0.6,0-1,0-1.4
							C133.8,46.8,133.8,46.6,133.8,46.6z"/>
					</g>
				</g>
				<g>
					<g>
						<path class="st3" d="M133.9,46.7c-0.1,2.5-0.2,4.2-2.1,4.8c-2.5,0.9-4.3-1.5-4.3-3.2"/>
						<path class="st9" d="M133.9,46.7c0,0,0,0.2,0.1,0.5c0,0.3,0.1,0.8,0.1,1.4c0,0.3,0,0.6-0.1,0.9c-0.1,0.3-0.2,0.7-0.3,1
							c-0.2,0.3-0.5,0.7-0.8,0.9c-0.3,0.2-0.7,0.4-1.1,0.5c-0.2,0.1-0.4,0.1-0.6,0.1c-0.2,0-0.4,0-0.6,0c-0.4-0.1-0.8-0.2-1.1-0.4
							c-0.3-0.2-0.6-0.4-0.8-0.7c-0.2-0.3-0.4-0.5-0.5-0.8c-0.1-0.3-0.2-0.5-0.3-0.7c-0.1-0.2-0.1-0.4-0.1-0.6c0-0.2,0-0.3,0-0.4
							c0-0.1,0-0.1,0-0.1s0,0,0,0.1c0,0.1,0,0.2,0.1,0.4c0,0.2,0.1,0.3,0.2,0.5c0.1,0.2,0.2,0.4,0.4,0.6c0.1,0.1,0.2,0.2,0.3,0.3
							c0.1,0.1,0.2,0.2,0.3,0.3c0.2,0.2,0.5,0.4,0.8,0.5c0.3,0.1,0.6,0.2,0.9,0.2c0.2,0,0.3,0,0.5,0c0.1,0,0.3,0,0.5-0.1
							c0.3-0.1,0.6-0.2,0.9-0.4c0.3-0.2,0.5-0.4,0.6-0.6c0.3-0.5,0.5-1.1,0.6-1.7c0.1-0.5,0.2-1,0.3-1.3
							C133.8,46.9,133.9,46.7,133.9,46.7z"/>
					</g>
				</g>
				<line class="st10" x1="137.2" y1="47.2" x2="150.8" y2="44.6"/>
				<line class="st10" x1="137.6" y1="48.9" x2="149.6" y2="48.3"/>
				<line class="st10" x1="138.2" y1="45.7" x2="149.5" y2="41.1"/>
				<line class="st10" x1="130.5" y1="47.7" x2="116.9" y2="45.3"/>
				<line class="st10" x1="130.1" y1="49.3" x2="118.1" y2="48.9"/>
				<line class="st10" x1="129.4" y1="46.2" x2="118.1" y2="41.8"/>
				<g>
					
						<ellipse transform="matrix(1 -8.594002e-03 8.594002e-03 1 -0.3974 1.1095)" class="st6" cx="128.9" cy="46.8" rx="0.2" ry="0.2"/>
					
						<ellipse transform="matrix(1 -7.620662e-03 7.620662e-03 1 -0.3508 0.9942)" class="st6" cx="130.3" cy="46.5" rx="0.3" ry="0.3"/>
					
						<ellipse transform="matrix(1 -8.581502e-03 8.581502e-03 1 -0.4055 1.1164)" class="st6" cx="129.9" cy="47.8" rx="0.2" ry="0.2"/>
					
						<ellipse transform="matrix(1 -8.552318e-03 8.552318e-03 1 -0.4048 1.1235)" class="st6" cx="131.2" cy="47.9" rx="0.1" ry="0.1"/>
					
						<ellipse transform="matrix(1 -5.202558e-03 5.202558e-03 1 -0.243 0.6858)" class="st6" cx="131.7" cy="47" rx="0.1" ry="0.1"/>
					
						<ellipse transform="matrix(1 -5.489898e-03 5.489898e-03 1 -0.2656 0.7077)" class="st6" cx="128.8" cy="48.7" rx="0.1" ry="0.1"/>
					
						<ellipse transform="matrix(1 -8.617851e-03 8.617851e-03 1 -0.4221 1.1261)" class="st6" cx="130.5" cy="49.5" rx="0.2" ry="0.2"/>
					
						<ellipse transform="matrix(1 -7.222034e-03 7.222034e-03 1 -0.3492 0.9528)" class="st6" cx="131.7" cy="48.8" rx="0.1" ry="0.1"/>
				</g>
				<g>
					
						<ellipse transform="matrix(1 -5.689186e-03 5.689186e-03 1 -0.2639 0.7709)" class="st6" cx="135.4" cy="46.8" rx="0.2" ry="0.2"/>
					
						<ellipse transform="matrix(1 -7.702178e-03 7.702178e-03 1 -0.3541 1.0546)" class="st6" cx="136.7" cy="46.5" rx="0.3" ry="0.3"/>
					
						<ellipse transform="matrix(1 -9.877496e-03 9.877496e-03 1 -0.4653 1.349)" class="st6" cx="136.3" cy="47.8" rx="0.2" ry="0.2"/>
					
						<ellipse transform="matrix(0.9999 -1.072148e-02 1.072148e-02 0.9999 -0.5053 1.4782)" class="st6" cx="137.6" cy="47.9" rx="0.1" ry="0.1"/>
					
						<ellipse transform="matrix(1 -8.214400e-03 8.214400e-03 1 -0.3816 1.1364)" class="st6" cx="138.2" cy="47" rx="0.1" ry="0.1"/>
					
						<ellipse transform="matrix(1 -7.960220e-03 7.960220e-03 1 -0.3834 1.078)" class="st6" cx="135.2" cy="48.7" rx="0.1" ry="0.1"/>
					
						<ellipse transform="matrix(1 -5.859847e-03 5.859847e-03 1 -0.2878 0.8032)" class="st6" cx="136.9" cy="49.5" rx="0.2" ry="0.2"/>
					
						<ellipse transform="matrix(0.9999 -1.076004e-02 1.076004e-02 0.9999 -0.5171 1.4899)" class="st6" cx="138.2" cy="48.8" rx="0.1" ry="0.1"/>
				</g>
				<path class="st4" d="M139.3,29.2c0,0,4.1-2.6,4.7-2.2c0.6,0.4,0.2,5.2,0.2,5.2s-0.5-1-1.8-1.9C141,29.3,139.3,29.2,139.3,29.2z"
					/>
			</g>
		</g>
		<g>
			<g>
				<g>
					<circle class="st1" cx="37.8" cy="42.6" r="24.1"/>
				</g>
				<g>
					<path class="st2" d="M30.8,58.3l17.6,5.9c8-3.9,13.5-12.1,13.5-21.7c0-3.2-0.6-6.2-1.7-9l-9.2-4.6L47,33.1l-5.2-1.3l-2.5,7.8
						l-5.4,11.7L30.8,58.3z"/>
				</g>
			</g>
			<g>
				
					<ellipse transform="matrix(1 -1.396175e-03 1.396175e-03 1 -7.081804e-02 5.333197e-02)" class="st11" cx="38.2" cy="50.7" rx="14.7" ry="8.5"/>
				<g>
					<path class="st11" d="M27.7,56.6c-1.9-1.1-4.9-3.6-5.1-7.5c-0.1-1.8,0.9-3.7,1.4-5.7c0.3-1.3,0.3-3.6,0.9-4.8
						c1.6-3.3,4.2-6.2,8.3-7.2c7.6-2,17.1,0.8,18.4,7.5c0.2,1.1,0.7,3.2,1.1,4.5c0.6,2.2,1.6,3.9,1.3,6.6c-0.2,2.5-2.2,4.8-3.9,5.8"
						/>
					<path class="st11" d="M45.2,32.2c1.6-1.4,4.7-3.7,5.6-3.5c1,0.2,3.5,9.1-0.1,11"/>
					<g>
						<g>
							<path class="st12" d="M47.7,34.5c0-1.5,2.2-4.5,3-4.2c0.8,0.3,1.7,7.1-0.4,8.3"/>
							<path class="st12" d="M47.7,34.5c0,0,0-0.1,0-0.2c0-0.1,0-0.3,0.1-0.5c0.1-0.4,0.3-0.9,0.6-1.5c0.3-0.6,0.8-1.3,1.4-1.8
								c0.2-0.1,0.4-0.3,0.6-0.4c0.1,0,0.3,0,0.4,0c0.2,0.1,0.2,0.2,0.3,0.3c0.2,0.4,0.3,0.9,0.4,1.3c0.3,1.8,0.3,3.6,0,4.9
								c-0.2,0.7-0.4,1.2-0.7,1.5c-0.1,0.2-0.3,0.3-0.3,0.3c-0.1,0.1-0.1,0.1-0.1,0.1s0,0,0.1-0.1c0.1-0.1,0.2-0.2,0.3-0.3
								c0.2-0.3,0.4-0.8,0.5-1.5c0.1-0.6,0.2-1.4,0.1-2.3c0-0.8-0.1-1.7-0.3-2.6c-0.1-0.4-0.2-0.9-0.4-1.2c0-0.1-0.1-0.2-0.1-0.2
								c0,0-0.1,0-0.2,0c-0.2,0-0.3,0.2-0.5,0.3c-0.3,0.3-0.6,0.6-0.8,0.8c-0.2,0.3-0.4,0.6-0.6,0.9c-0.3,0.6-0.6,1.1-0.7,1.4
								C47.7,34.2,47.7,34.5,47.7,34.5z"/>
						</g>
					</g>
					<path class="st11" d="M30.1,33c-1.6-1.4-4.7-4-5.6-3.5c-0.9,0.5-3.5,9.1,0.1,11"/>
					<g>
						<g>
							<path class="st12" d="M27.6,35.2c0-1.5-2.3-4.8-3-4.2c-0.7,0.7-1.7,7.1,0.4,8.3"/>
							<path class="st12" d="M27.6,35.2c0,0,0-0.2-0.1-0.6c-0.1-0.4-0.4-0.9-0.7-1.5c-0.2-0.3-0.4-0.6-0.6-0.9
								c-0.2-0.3-0.5-0.6-0.8-0.9c-0.2-0.1-0.3-0.2-0.5-0.3c-0.1,0-0.1,0-0.2,0c0,0,0,0,0,0l0,0c0,0,0,0,0,0.1c0,0,0,0.1-0.1,0.1
								c-0.2,0.4-0.3,0.8-0.4,1.2c-0.2,0.9-0.3,1.8-0.3,2.6c0,0.8,0,1.6,0.1,2.3c0.1,0.7,0.3,1.2,0.5,1.5c0.1,0.2,0.2,0.3,0.3,0.3
								c0.1,0.1,0.1,0.1,0.1,0.1s0,0-0.1-0.1c-0.1-0.1-0.2-0.2-0.3-0.3c-0.3-0.3-0.5-0.8-0.7-1.5c-0.3-1.3-0.3-3.2,0-5
								c0.1-0.4,0.2-0.9,0.4-1.3c0-0.1,0.1-0.1,0.1-0.2c0,0,0,0,0.1-0.1l0,0c0,0,0,0,0.1-0.1c0.1-0.1,0.3-0.1,0.5-0.1
								c0.3,0.1,0.4,0.2,0.6,0.4c0.7,0.6,1.1,1.3,1.4,1.9c0.3,0.6,0.5,1.2,0.6,1.5C27.6,35,27.6,35.2,27.6,35.2z"/>
						</g>
					</g>
					<path class="st13" d="M38.9,34.8c-0.1,1.2-0.2,3.3-0.2,4.5c0.2,3.3,0.8,4.6,2.7,5.8c1.7,1.1,4.9,0.6,7.2,1.8
						c2.7,1.3,4.1,3.5,2.9,5.7c-1.6,3.1-8,4.8-14,4.8c-6,0-10.4-1.7-12.4-4.8c-0.6-1-1.9-3.8,0.8-5.8c1.9-1.5,4.8-0.9,7-1.8
						c2.3-0.9,3.7-3,4-5.8c0.1-1.2,0.2-3.2,0.1-4.5c-0.1-1.8-0.7-3.5-0.9-3.9c1.2-0.1,2.3-0.1,3.4,0C39.7,30.9,38.9,33.5,38.9,34.8z
						"/>
					<path class="st14" d="M38,44.6c1.9,0.1,3.5,1.1,4.4,2.5c-0.5-2-2.2-3.5-4.4-3.7c-2.4-0.2-4.5,1.4-5,3.6
						C33.9,45.4,35.8,44.5,38,44.6z"/>
					<g>
						
							<ellipse transform="matrix(1 -1.229795e-03 1.229795e-03 1 -5.284991e-02 5.111215e-02)" class="st6" cx="41.5" cy="43" rx="0.9" ry="0.9"/>
					</g>
					<g>
						
							<ellipse transform="matrix(1 -1.479696e-03 1.479696e-03 1 -6.360523e-02 5.033113e-02)" class="st6" cx="34" cy="43" rx="0.9" ry="0.9"/>
					</g>
					<g>
						
							<ellipse transform="matrix(1 -1.147973e-03 1.147973e-03 1 -4.901319e-02 3.869924e-02)" class="st15" cx="33.7" cy="42.7" rx="0.4" ry="0.4"/>
					</g>
					<g>
						
							<ellipse transform="matrix(1 -1.149226e-03 1.149226e-03 1 -4.904978e-02 4.740235e-02)" class="st15" cx="41.2" cy="42.7" rx="0.4" ry="0.4"/>
					</g>
					<g>
						<g>
							
								<ellipse transform="matrix(0.555 -0.8319 0.8319 0.555 -24.8202 49.357)" class="st16" cx="33.7" cy="47.9" rx="0.4" ry="0.4"/>
							
								<ellipse transform="matrix(0.5542 -0.8324 0.8324 0.5542 -23.6753 50.2976)" class="st16" cx="35.1" cy="47.3" rx="0.2" ry="0.2"/>
							
								<ellipse transform="matrix(0.5565 -0.8308 0.8308 0.5565 -25.248 50.2086)" class="st16" cx="34.4" cy="48.8" rx="0.2" ry="0.2"/>
							
								<ellipse transform="matrix(0.5524 -0.8336 0.8336 0.5524 -24.3982 51.179)" class="st16" cx="35.5" cy="48.3" rx="0.2" ry="0.2"/>
							
								<ellipse transform="matrix(0.5551 -0.8318 0.8318 0.5551 -23.8777 49.2223)" class="st16" cx="34.1" cy="46.9" rx="0.1" ry="0.1"/>
							
								<ellipse transform="matrix(0.555 -0.8319 0.8319 0.555 -23.7521 51.0071)" class="st16" cx="35.8" cy="47.7" rx="0.1" ry="0.1"/>
						</g>
					</g>
					<g>
						<g>
							
								<ellipse transform="matrix(0.8777 -0.4792 0.4792 0.8777 -18.0033 25.7695)" class="st16" cx="41.5" cy="48.2" rx="0.4" ry="0.4"/>
							
								<ellipse transform="matrix(0.8785 -0.4777 0.4777 0.8785 -17.772 24.9386)" class="st16" cx="40.2" cy="47.4" rx="0.2" ry="0.2"/>
							
								<ellipse transform="matrix(0.8783 -0.4781 0.4781 0.8783 -18.4581 25.4311)" class="st16" cx="40.7" cy="49" rx="0.2" ry="0.2"/>
							
								<ellipse transform="matrix(0.8774 -0.4798 0.4798 0.8774 -18.37 24.9976)" class="st16" cx="39.7" cy="48.4" rx="0.2" ry="0.2"/>
							
								<ellipse transform="matrix(0.8785 -0.4777 0.4777 0.8785 -17.5344 25.4213)" class="st16" cx="41.2" cy="47.2" rx="0.1" ry="0.1"/>
							
								<ellipse transform="matrix(0.8796 -0.4756 0.4756 0.8796 -17.9922 24.51)" class="st16" cx="39.4" cy="47.8" rx="0.1" ry="0.1"/>
						</g>
					</g>
					<path class="st17" d="M39,51.7c0.4-0.4,0.2-0.9,0.3-1.3c-1.5-0.4-1.7-2.1-1.7-2.1s0,1.7-1.8,2c0,0.5,0.1,1,0.4,1.4L39,51.7z"/>
					<path class="st7" d="M39,51.6c0.4-0.4,0.2-0.9,0.3-1.3c-1.5-0.4-1.7-2.1-1.7-2.1s0,1.7-1.8,2c0,0.5,0.1,1,0.4,1.4L39,51.6z"/>
					<path class="st18" d="M37.7,45.8c0,0,0.2,3.5-1.6,4.2c-1.7,0.7-4.1-0.7-4.1-0.7"/>
					<path class="st18" d="M37.7,45.8c0,0-0.5,3.5,1.3,4.4c1.7,0.9,4.1-0.3,4.1-0.3"/>
					<path class="st19" d="M39.8,45c0,0.9-2.1,1.6-2.1,1.6s-2.1-0.7-2.1-1.6c0-0.9,0.9-0.9,2.1-0.9C38.9,44.1,39.8,44.1,39.8,45z"/>
				</g>
			</g>
		</g>
		<g>
			<g>
				<polygon class="st20" points="155.9,84.6 13.8,89.2 13.7,85.9 22.3,85.4 13.7,84.4 13.6,82.8 16.6,81.7 13.5,80.6 13.2,71 
					17.2,69.5 13.2,69 13.1,66.1 16.5,65 13,64.2 12.9,61.9 155,57.3 155.1,58.8 144.9,59.3 155.1,60.5 155.3,67.3 150.8,68 
					155.4,68.9 155.6,74.6 143.5,75.8 155.6,76.4 155.8,81 150.6,82 155.8,82.9 				"/>
				<g>
					<g>
						<path class="st21" d="M19,67.7c0,0,1.9-0.1,5.3-0.3c3.4-0.2,8.2-0.4,14-0.6c5.8-0.2,12.5-0.6,19.8-0.8
							c7.2-0.3,15-0.6,22.7-0.9c7.7-0.3,15.4-0.5,22.7-0.7c7.2-0.2,14-0.4,19.8-0.6c5.8-0.2,10.6-0.3,14-0.3
							c3.4-0.1,5.3-0.1,5.3-0.1s-1.9,0.1-5.3,0.3c-3.4,0.2-8.2,0.4-14,0.6c-5.8,0.2-12.5,0.6-19.8,0.8c-7.2,0.3-15,0.6-22.7,0.9
							c-7.7,0.3-15.4,0.5-22.7,0.7c-7.2,0.2-14,0.4-19.8,0.6c-5.8,0.2-10.6,0.3-14,0.3C20.9,67.7,19,67.7,19,67.7z"/>
					</g>
				</g>
				<g>
					<g>
						<path class="st21" d="M23.9,70.8c0,0,0.8-0.1,2.1-0.2c1.3-0.1,3.3-0.2,5.6-0.4c2.3-0.1,5-0.3,7.9-0.4c1.4-0.1,2.9-0.1,4.5-0.2
							c1.5-0.1,3.1-0.1,4.6-0.2c1.5-0.1,3.1-0.1,4.6-0.2c1.5,0,3-0.1,4.5-0.1c2.9-0.1,5.6-0.2,7.9-0.2c2.3,0,4.2,0,5.6-0.1
							c1.4,0,2.1,0,2.1,0s-0.8,0.1-2.1,0.2c-1.3,0.1-3.3,0.2-5.6,0.4c-2.3,0.1-5,0.3-7.9,0.4c-1.4,0.1-2.9,0.1-4.5,0.2
							c-1.5,0.1-3.1,0.1-4.6,0.2c-1.5,0.1-3.1,0.1-4.6,0.2c-1.5,0-3,0.1-4.5,0.1c-2.9,0.1-5.6,0.2-7.9,0.2c-2.3,0-4.2,0-5.6,0.1
							C24.7,70.8,23.9,70.8,23.9,70.8z"/>
					</g>
				</g>
				<g>
					<g>
						<path class="st21" d="M48.8,74.4c0,0,0.8-0.1,2.1-0.2c1.3-0.1,3.3-0.2,5.6-0.4c2.3-0.1,5-0.3,7.9-0.4c1.4-0.1,2.9-0.1,4.5-0.2
							c1.5-0.1,3.1-0.1,4.6-0.2c1.5-0.1,3.1-0.1,4.6-0.2c1.5,0,3-0.1,4.5-0.1c2.9-0.1,5.6-0.2,7.9-0.2c2.3,0,4.2,0,5.6-0.1
							c1.4,0,2.1,0,2.1,0s-0.8,0.1-2.1,0.2c-1.3,0.1-3.3,0.2-5.6,0.4c-2.3,0.1-5,0.3-7.9,0.4c-1.4,0.1-2.9,0.1-4.5,0.2
							c-1.5,0.1-3.1,0.1-4.6,0.2c-1.5,0.1-3.1,0.1-4.6,0.2c-1.5,0-3,0.1-4.5,0.1c-2.9,0.1-5.6,0.2-7.9,0.2c-2.3,0-4.2,0-5.6,0.1
							C49.5,74.4,48.8,74.4,48.8,74.4z"/>
					</g>
				</g>
				<g>
					<g>
						<path class="st21" d="M16.1,78.7c0,0,0.8-0.1,2.1-0.2c1.3-0.1,3.3-0.2,5.6-0.4c2.3-0.1,5-0.3,7.9-0.4c1.4-0.1,2.9-0.1,4.5-0.2
							c1.5-0.1,3.1-0.1,4.6-0.2c1.5-0.1,3.1-0.1,4.6-0.2c1.5,0,3-0.1,4.5-0.1c2.9-0.1,5.6-0.2,7.9-0.2c2.3,0,4.2,0,5.6-0.1
							c1.4,0,2.1,0,2.1,0s-0.8,0.1-2.1,0.2c-1.3,0.1-3.3,0.2-5.6,0.4c-2.3,0.1-5,0.3-7.9,0.4c-1.4,0.1-2.9,0.1-4.5,0.2
							c-1.5,0.1-3.1,0.1-4.6,0.2c-1.5,0.1-3.1,0.1-4.6,0.2c-1.5,0-3,0.1-4.5,0.1c-2.9,0.1-5.6,0.2-7.9,0.2c-2.3,0-4.2,0-5.6,0.1
							C16.8,78.7,16.1,78.7,16.1,78.7z"/>
					</g>
				</g>
				<g>
					<g>
						<path class="st21" d="M54.1,81.9c0,0,1.5-0.1,4.2-0.2c2.7-0.1,6.5-0.4,11.1-0.6c4.6-0.2,10-0.5,15.7-0.7
							c5.8-0.2,11.9-0.5,18-0.7c6.1-0.2,12.3-0.4,18-0.6c5.8-0.2,11.1-0.3,15.7-0.4c4.6-0.1,8.4-0.2,11.1-0.2c2.7,0,4.2-0.1,4.2-0.1
							s-1.5,0.1-4.2,0.2c-2.7,0.1-6.5,0.4-11.1,0.6c-4.6,0.2-10,0.5-15.7,0.7c-5.8,0.2-11.9,0.5-18,0.7c-6.1,0.2-12.3,0.4-18,0.6
							c-5.8,0.2-11.1,0.3-15.7,0.4c-4.6,0.1-8.4,0.2-11.1,0.2C55.6,81.8,54.1,81.9,54.1,81.9z"/>
					</g>
				</g>
				<g>
					<g>
						<path class="st21" d="M67.6,84.5c0,0,0.8-0.1,2.1-0.2c1.3-0.1,3.3-0.2,5.6-0.4c2.3-0.1,5-0.3,7.9-0.4c1.4-0.1,2.9-0.1,4.5-0.2
							c1.5-0.1,3.1-0.1,4.6-0.2c1.5-0.1,3.1-0.1,4.6-0.2c1.5,0,3-0.1,4.5-0.1c2.9-0.1,5.6-0.2,7.9-0.2c2.3,0,4.2,0,5.6-0.1
							c1.4,0,2.1,0,2.1,0s-0.8,0.1-2.1,0.2c-1.3,0.1-3.3,0.2-5.6,0.4c-2.3,0.1-5,0.3-7.9,0.4c-1.4,0.1-2.9,0.1-4.5,0.2
							c-1.5,0.1-3.1,0.1-4.6,0.2c-1.5,0.1-3.1,0.1-4.6,0.2c-1.5,0-3,0.1-4.5,0.1c-2.9,0.1-5.6,0.2-7.9,0.2c-2.3,0-4.2,0-5.6,0.1
							C68.4,84.5,67.6,84.5,67.6,84.5z"/>
					</g>
				</g>
				<g>
					<g>
						<path class="st21" d="M40.4,72.9c-0.9-0.1-1.8-0.3-2.7-0.4l-1.4-0.1l-0.7-0.1l-0.7,0c-0.9,0-1.8-0.1-2.8,0l-2.8,0
							c-1.8,0-3.7,0.1-5.5,0.2c-0.9,0.1-1.8,0.2-2.7,0.3c-0.4,0.1-0.9,0.2-1.3,0.4c-0.2,0.1-0.4,0.2-0.5,0.3c0,0.1,0,0.1,0,0.2
							c0,0.1,0,0.1,0.1,0.1c0,0,0.1,0.1,0.1,0.1c0.3,0.3,0.7,0.4,1.2,0.5c0.4,0.1,0.9,0.2,1.3,0.3c0.9,0.1,1.8,0.2,2.7,0.3
							c1.8,0.1,3.7,0.1,5.5,0.1c1.8,0,3.7-0.1,5.5-0.3c0.9-0.1,1.8-0.2,2.7-0.3c0.5-0.1,0.9-0.1,1.4-0.2c0.4-0.1,0.9-0.2,1.3-0.3
							l0,0.3c-0.2-0.1-0.5-0.3-0.7-0.4c-0.3-0.1-0.5-0.2-0.8-0.3l-0.4-0.1l-0.4-0.1c-0.3-0.1-0.5-0.1-0.8-0.1
							c-0.3,0-0.6-0.1-0.8-0.1c-0.3,0-0.6,0-0.8,0c-0.3,0-0.6,0-0.8,0c-0.3,0-0.6,0-0.8,0c-1.1,0-2.2,0.1-3.4,0.1
							c-1.1,0.1-2.2,0.1-3.4,0.2c1.1-0.1,2.2-0.2,3.4-0.3c1.1-0.1,2.2-0.2,3.4-0.2c0.3,0,0.6,0,0.8,0c0.3,0,0.6,0,0.8,0
							c0.3,0,0.6,0,0.8,0c0.3,0,0.6,0,0.8,0.1c0.3,0,0.6,0.1,0.8,0.1l0.4,0.1l0.4,0.1c0.3,0.1,0.5,0.2,0.8,0.3
							c0.3,0.1,0.5,0.2,0.8,0.4l0.3,0.1l-0.3,0.1c-0.5,0.2-0.9,0.3-1.4,0.4c-0.5,0.1-0.9,0.2-1.4,0.2c-0.9,0.1-1.8,0.2-2.8,0.3
							c-1.8,0.2-3.7,0.3-5.5,0.3c-1.8,0-3.7,0.1-5.5-0.1c-0.9-0.1-1.8-0.1-2.8-0.3c-0.5-0.1-0.9-0.2-1.4-0.3
							c-0.5-0.1-0.9-0.3-1.3-0.6c0-0.1-0.1-0.1-0.1-0.2c0-0.1-0.1-0.2-0.1-0.2c0-0.2,0-0.3,0.1-0.5c0.2-0.3,0.4-0.4,0.6-0.5
							c0.5-0.2,0.9-0.3,1.4-0.4c0.9-0.2,1.8-0.3,2.8-0.3c1.8-0.1,3.7-0.1,5.5-0.1l2.8,0c0.9,0,1.8,0.1,2.8,0.1l0.7,0l0.7,0.1
							l1.4,0.2C38.6,72.5,39.5,72.7,40.4,72.9z"/>
					</g>
				</g>
				<g>
					<g>
						<path class="st21" d="M146.4,69c-1.6,0-3.2-0.3-4.8-0.4c-1.6-0.2-3.2-0.2-4.8-0.1c-3.2,0.1-6.4,0.4-9.6,0.6l-4.8,0.3
							c-1.6,0.1-3.2,0.3-4.8,0.4l-4.8,0.4c-1.6,0.1-3.2,0.3-4.8,0.5c-0.8,0.1-1.6,0.3-2.3,0.5c-0.4,0.1-0.8,0.2-1.1,0.4
							c-0.4,0.1-0.7,0.3-1,0.6c-0.3,0.2-0.5,0.6-0.4,0.9c0.2,0.3,0.5,0.5,0.9,0.6c0.7,0.3,1.5,0.4,2.3,0.5c1.6,0.2,3.2,0.2,4.8,0.3
							c1.6,0.1,3.2,0.1,4.8,0.1l1.2,0l1.2,0l2.4-0.1c0.8,0,1.6-0.1,2.4-0.1l2.4-0.2c3.2-0.3,6.4-0.4,9.6-0.5
							c3.2-0.1,6.4-0.3,9.6-0.6c0.8-0.1,1.6-0.2,2.4-0.3c0.4-0.1,0.8-0.1,1.2-0.2c0.4-0.1,0.8-0.2,1.1-0.4c0.1,0,0.1-0.1,0.2-0.1
							c0,0,0,0,0-0.1c-0.1-0.1-0.2-0.2-0.4-0.3c-0.3-0.1-0.7-0.3-1.1-0.3c-0.4-0.1-0.8-0.2-1.2-0.2l-1.2-0.2
							c-3.2-0.4-6.4-0.4-9.6-0.4c-3.2,0-6.4,0-9.6,0.1c-1.6,0.1-3.2,0.2-4.8,0.4c-1.6,0.1-3.2,0.4-4.8,0.6c-0.8,0.1-1.6,0.2-2.4,0.4
							c-0.4,0.1-0.8,0.2-1.1,0.4c0,0-0.1,0-0.1,0.1c0,0,0,0,0,0c0,0,0,0,0,0c0,0,0.1,0.1,0.2,0.1c0.2,0,0.4,0.1,0.6,0.1
							c1.6,0.2,3.2,0.2,4.8,0c3.2-0.2,6.4-0.8,9.6-0.8l4.8-0.1l4.8-0.2l0,0.1c-0.3-0.1-0.5-0.3-0.8-0.3c-0.1,0-0.3-0.1-0.4-0.1
							l-0.4-0.1c-0.3-0.1-0.6-0.1-0.9-0.1c-0.3,0-0.6-0.1-0.9-0.1c-0.3,0-0.6,0-0.9-0.1c-0.3,0-0.6,0-0.9,0c-0.3,0-0.6,0-0.9,0
							c-0.3,0-0.6,0-0.9,0c-1.2,0-2.3,0.1-3.5,0.2c-1.2,0.1-2.3,0.2-3.4,0.4c1.1-0.2,2.3-0.3,3.4-0.4c1.2-0.1,2.3-0.2,3.5-0.2
							c0.3,0,0.6,0,0.9,0c0.3,0,0.6,0,0.9,0c0.3,0,0.6,0,0.9,0c0.3,0,0.6,0,0.9,0.1c0.3,0,0.6,0,0.9,0.1c0.3,0,0.6,0.1,0.9,0.1
							l0.4,0.1c0.1,0,0.3,0.1,0.4,0.1c0.3,0.1,0.5,0.2,0.8,0.3l0.3,0.1l-0.3,0l-4.8,0.2c-1.6,0.1-3.2,0.1-4.8,0.1
							c-3.2,0-6.4,0.6-9.6,0.8l-1.2,0.1l-1.2,0c-0.4,0-0.8,0-1.2,0c-0.4,0-0.8,0-1.2-0.1c-0.2,0-0.4-0.1-0.6-0.1
							c-0.1,0-0.2-0.1-0.3-0.1c0,0-0.1-0.1-0.1-0.1c0-0.1,0-0.1,0-0.2c0-0.1,0.1-0.1,0.2-0.1c0.4-0.2,0.8-0.3,1.2-0.4
							c0.8-0.2,1.6-0.3,2.4-0.4c1.6-0.2,3.2-0.4,4.8-0.6c1.6-0.2,3.2-0.3,4.8-0.4c3.2-0.1,6.4-0.1,9.6-0.2c3.2,0,6.4,0,9.7,0.4
							l1.2,0.2c0.4,0.1,0.8,0.1,1.2,0.2c0.4,0.1,0.8,0.2,1.2,0.4c0.2,0.1,0.4,0.2,0.6,0.4c0,0.1,0.1,0.2,0.1,0.3
							c0,0.1-0.1,0.2-0.1,0.2c-0.1,0.1-0.2,0.2-0.3,0.2c-0.4,0.2-0.8,0.3-1.2,0.4c-0.4,0.1-0.8,0.2-1.2,0.3
							c-0.8,0.1-1.6,0.2-2.4,0.3c-3.2,0.4-6.4,0.5-9.6,0.6c-3.2,0.1-6.4,0.2-9.6,0.4l-2.4,0.1c-0.8,0-1.6,0.1-2.4,0.1l-2.4,0.1
							l-1.2,0l-1.2,0c-1.6,0-3.2,0-4.8-0.1c-1.6-0.1-3.2-0.1-4.8-0.3c-0.8-0.1-1.6-0.2-2.4-0.5c-0.2-0.1-0.4-0.2-0.6-0.3
							c-0.2-0.1-0.4-0.3-0.5-0.5c-0.1-0.2-0.1-0.5,0-0.7c0.1-0.1,0.1-0.2,0.2-0.3c0.1-0.1,0.2-0.2,0.2-0.2c0.3-0.3,0.7-0.5,1.1-0.6
							c0.4-0.2,0.8-0.3,1.2-0.4c0.8-0.2,1.6-0.4,2.4-0.5c1.6-0.2,3.2-0.4,4.8-0.5l4.8-0.4c1.6-0.1,3.2-0.3,4.8-0.4l4.8-0.3
							c3.2-0.2,6.4-0.4,9.6-0.5c1.6,0,3.2,0,4.8,0.2C143.2,68.7,144.8,68.9,146.4,69z"/>
					</g>
				</g>
				<g>
					<g>
						<path class="st21" d="M50.3,81.6l-4.9,0.2l-2.5,0.1L41.7,82c-0.4,0-0.8,0-1.2,0.1c-1.6,0.1-3.3,0.1-4.9,0.2
							c-0.4,0-0.8,0.1-1.2,0.1c-0.4,0.1-0.8,0.1-1.2,0.2c-0.4,0.1-0.8,0.2-1.2,0.3c-0.2,0.1-0.4,0.1-0.6,0.2
							c-0.2,0.1-0.4,0.2-0.5,0.3l0-0.3c0.6,0.4,1.4,0.5,2.1,0.5c0.8,0,1.5,0,2.3-0.1c0.8,0,1.6,0,2.3-0.1c0.8,0,1.5,0,2.3-0.1
							c0.8,0,1.5-0.1,2.3-0.1l1.2-0.1c0.4,0,0.8,0,1.2-0.1c0.4,0,0.8,0,1.1-0.1c0.4-0.1,0.8-0.1,1.1-0.2c0.4-0.1,0.8-0.2,1.2-0.2
							c0.4,0,0.9,0.2,1.2,0.5l0.2,0.1l-0.1,0.2c-0.4,0.5-0.9,0.8-1.4,1c-0.5,0.2-1.1,0.4-1.6,0.5c-1.1,0.2-2.2,0.3-3.4,0.3
							c-0.6,0-1.1,0-1.7,0.1l-1.7,0l-3.3,0.1l-3.3,0.1c-0.6,0-1.1,0.1-1.7,0.1c-0.6,0-1.1,0.1-1.7,0.1c-1.1,0-2.2,0-3.3,0l-3.3-0.1
							l3.3,0c1.1,0,2.2,0,3.3-0.1c0.6,0,1.1-0.1,1.7-0.1c0.6,0,1.1-0.1,1.7-0.1l3.3-0.2l3.3-0.1l1.7-0.1c0.6,0,1.1,0,1.7-0.1
							c1.1-0.1,2.2-0.1,3.3-0.4c0.5-0.1,1.1-0.3,1.6-0.5c0.5-0.2,0.9-0.5,1.3-0.9l0,0.3c-0.3-0.2-0.6-0.4-0.9-0.4
							c-0.3,0-0.7,0.1-1.1,0.2c-0.4,0.1-0.8,0.1-1.2,0.2c-0.4,0.1-0.8,0.1-1.2,0.1c-0.4,0-0.8,0-1.2,0.1l-1.2,0.1
							c-0.8,0-1.6,0.1-2.3,0.1c-0.8,0-1.6,0.1-2.3,0.1c-0.8,0-1.6,0-2.3,0.1C34.5,84,33.8,84,33,84c-0.8,0-1.6-0.2-2.3-0.6l-0.3-0.2
							l0.3-0.1c0.2-0.1,0.4-0.2,0.6-0.3c0.2-0.1,0.4-0.2,0.6-0.2c0.4-0.1,0.8-0.2,1.2-0.3c0.4-0.1,0.8-0.1,1.2-0.2
							c0.4,0,0.8-0.1,1.2-0.1c1.6-0.1,3.3-0.1,4.9-0.2c0.4,0,0.8,0,1.2-0.1l1.2,0l2.5-0.1L50.3,81.6z"/>
					</g>
				</g>
			</g>
			<g>
				<polygon class="st22" points="152.3,110.3 10.3,105.2 10.4,101.9 19.1,102 10.5,100.4 10.5,98.8 13.6,97.9 10.6,96.6 10.9,87 
					15,85.8 11,85 11.1,82.1 14.6,81.2 11.2,80.2 11.3,77.9 153.3,83 153.3,84.5 143.1,84.2 153.2,86.1 153,93 148.4,93.3 
					152.9,94.5 152.7,100.2 140.6,100.6 152.6,102.1 152.5,106.6 147.3,107.3 152.4,108.5 				"/>
				<polygon class="st20" points="153.3,111.5 11.3,106.4 11.4,103.1 20,103.2 11.4,101.6 11.5,100.1 14.5,99.1 11.6,97.8 
					11.9,88.2 16,87 12,86.2 12.1,83.4 15.5,82.5 12.1,81.4 12.2,79.1 154.3,84.2 154.2,85.7 144.1,85.4 154.2,87.3 153.9,94.2 
					149.4,94.5 153.9,95.7 153.7,101.5 141.5,101.8 153.6,103.3 153.4,107.8 148.3,108.5 153.4,109.8 				"/>
				<g>
					<g>
						<path class="st21" d="M17.9,85.3c0,0,1.9,0,5.3,0.1c3.4,0.1,8.2,0.2,14,0.3C43,85.9,49.8,86,57,86.2c7.2,0.2,15,0.4,22.7,0.7
							c7.7,0.3,15.4,0.5,22.7,0.8c7.2,0.2,14,0.5,19.8,0.8c5.8,0.2,10.6,0.5,14,0.6c3.4,0.2,5.3,0.3,5.3,0.3s-1.9,0-5.3-0.1
							c-3.4-0.1-8.2-0.2-14-0.3c-5.8-0.2-12.6-0.3-19.8-0.5c-7.2-0.2-15-0.4-22.7-0.7c-7.7-0.3-15.4-0.5-22.7-0.8
							c-7.2-0.3-14-0.5-19.8-0.8c-5.8-0.2-10.6-0.5-14-0.6C19.8,85.4,17.9,85.3,17.9,85.3z"/>
					</g>
				</g>
				<g>
					<g>
						<path class="st21" d="M22.6,88.7c0,0,0.8,0,2.1,0c1.4,0,3.3,0,5.6,0c2.3,0,5,0,7.9,0.1c1.4,0,2.9,0.1,4.5,0.1
							c1.5,0,3.1,0.1,4.6,0.1c1.5,0,3.1,0.1,4.6,0.1c1.5,0.1,3,0.1,4.5,0.2c2.9,0.1,5.6,0.2,7.9,0.3c2.3,0.1,4.2,0.2,5.6,0.3
							c1.3,0.1,2.1,0.1,2.1,0.1s-0.8,0-2.1,0c-1.4,0-3.3,0-5.6,0c-2.3,0-5,0-7.9-0.1c-1.4,0-2.9-0.1-4.5-0.1c-1.5,0-3.1-0.1-4.6-0.1
							c-1.5,0-3.1-0.1-4.6-0.1c-1.5-0.1-3-0.1-4.5-0.2c-2.9-0.1-5.6-0.2-7.9-0.3c-2.3-0.1-4.2-0.2-5.6-0.3
							C23.4,88.8,22.6,88.7,22.6,88.7z"/>
					</g>
				</g>
				<g>
					<g>
						<path class="st21" d="M47.1,94c0,0,0.8,0,2.1,0c1.4,0,3.3,0,5.6,0c2.3,0,5,0,7.9,0.1c1.4,0,2.9,0.1,4.5,0.1
							c1.5,0,3.1,0.1,4.6,0.1c1.5,0,3.1,0.1,4.6,0.1c1.5,0.1,3,0.1,4.5,0.2c2.9,0.1,5.6,0.2,7.9,0.3c2.3,0.1,4.2,0.2,5.6,0.3
							c1.3,0.1,2.1,0.1,2.1,0.1s-0.8,0-2.1,0c-1.4,0-3.3,0-5.6,0c-2.3,0-5,0-7.9-0.1c-1.4,0-2.9-0.1-4.5-0.1c-1.5,0-3.1-0.1-4.6-0.1
							c-1.5,0-3.1-0.1-4.6-0.1c-1.5-0.1-3-0.1-4.5-0.2c-2.9-0.1-5.6-0.2-7.9-0.3c-2.3-0.1-4.2-0.2-5.6-0.3
							C47.9,94.1,47.1,94,47.1,94z"/>
					</g>
				</g>
				<g>
					<g>
						<path class="st21" d="M14.2,96.1c0,0,0.8,0,2.1,0c1.4,0,3.3,0,5.6,0c2.3,0,5,0,7.9,0.1c1.4,0,2.9,0.1,4.5,0.1
							c1.5,0,3.1,0.1,4.6,0.1c1.5,0,3.1,0.1,4.6,0.1c1.5,0.1,3,0.1,4.5,0.2c2.9,0.1,5.6,0.2,7.9,0.3c2.3,0.1,4.2,0.2,5.6,0.3
							c1.3,0.1,2.1,0.1,2.1,0.1s-0.8,0-2.1,0c-1.4,0-3.3,0-5.6,0c-2.3,0-5,0-7.9-0.1c-1.4,0-2.9-0.1-4.5-0.1c-1.5,0-3.1-0.1-4.6-0.1
							c-1.5,0-3.1-0.1-4.6-0.1c-1.5-0.1-3-0.1-4.5-0.2c-2.9-0.1-5.6-0.2-7.9-0.3c-2.3-0.1-4.2-0.2-5.6-0.3
							C15,96.1,14.2,96.1,14.2,96.1z"/>
					</g>
				</g>
				<g>
					<g>
						<path class="st21" d="M51.9,101.8c0,0,1.5,0,4.2,0.1c2.7,0.1,6.5,0.1,11.1,0.2c4.6,0.1,10,0.2,15.7,0.4
							c5.8,0.2,11.9,0.3,18,0.5c6.1,0.2,12.3,0.4,18,0.6c5.8,0.2,11.1,0.4,15.7,0.6c4.6,0.2,8.4,0.4,11.1,0.5
							c2.7,0.1,4.2,0.2,4.2,0.2s-1.5,0-4.2-0.1c-2.7-0.1-6.5-0.1-11.1-0.2c-4.6-0.1-10-0.2-15.7-0.4c-5.8-0.2-11.9-0.3-18-0.5
							c-6.1-0.2-12.3-0.4-18-0.6c-5.8-0.2-11.1-0.4-15.7-0.6c-4.6-0.2-8.4-0.4-11.1-0.5C53.4,101.9,51.9,101.8,51.9,101.8z"/>
					</g>
				</g>
				<g>
					<g>
						<path class="st21" d="M65.2,105.4c0,0,0.8,0,2.1,0c1.4,0,3.3,0,5.6,0c2.3,0,5,0,7.9,0.1c1.4,0,2.9,0.1,4.5,0.1
							c1.5,0,3.1,0.1,4.6,0.1c1.5,0,3.1,0.1,4.6,0.1c1.5,0.1,3,0.1,4.5,0.2c2.9,0.1,5.6,0.2,7.9,0.3c2.3,0.1,4.2,0.2,5.6,0.3
							c1.3,0.1,2.1,0.1,2.1,0.1s-0.8,0-2.1,0c-1.4,0-3.3,0-5.6,0c-2.3,0-5,0-7.9-0.1c-1.4,0-2.9-0.1-4.5-0.1c-1.5,0-3.1-0.1-4.6-0.1
							c-1.5,0-3.1-0.1-4.6-0.1c-1.5-0.1-3-0.1-4.5-0.2c-2.9-0.1-5.6-0.2-7.9-0.3c-2.3-0.1-4.2-0.2-5.6-0.3
							C66,105.4,65.2,105.4,65.2,105.4z"/>
					</g>
				</g>
				<g>
					<g>
						<path class="st21" d="M38.9,91.9c-0.9-0.2-1.8-0.4-2.7-0.6l-1.4-0.2L34.1,91l-0.7-0.1c-0.9-0.1-1.8-0.2-2.7-0.2l-2.8-0.1
							c-1.8-0.1-3.7-0.2-5.5-0.1c-0.9,0-1.8,0-2.7,0.1c-0.4,0.1-0.9,0.1-1.3,0.3c-0.2,0.1-0.4,0.2-0.5,0.3c0,0.1,0,0.1,0,0.2
							c0,0.1,0,0.1,0,0.1c0,0,0,0.1,0.1,0.1c0.3,0.3,0.7,0.5,1.1,0.6c0.4,0.1,0.9,0.3,1.3,0.4c0.9,0.2,1.8,0.3,2.7,0.4
							c1.8,0.2,3.7,0.4,5.5,0.5c1.8,0.1,3.7,0.1,5.5,0.1c0.9,0,1.8,0,2.8-0.1c0.5,0,0.9-0.1,1.4-0.1c0.4-0.1,0.9-0.1,1.3-0.3l0,0.3
							c-0.2-0.1-0.5-0.3-0.7-0.4c-0.2-0.1-0.5-0.2-0.8-0.3l-0.4-0.1l-0.4-0.1c-0.3-0.1-0.5-0.1-0.8-0.2c-0.3-0.1-0.5-0.1-0.8-0.1
							c-0.3,0-0.6-0.1-0.8-0.1c-0.3,0-0.6-0.1-0.8-0.1c-0.3,0-0.6,0-0.8-0.1c-1.1-0.1-2.2-0.1-3.4-0.1c-1.1,0-2.2,0-3.4-0.1
							c1.1,0,2.2,0,3.4,0c1.1,0,2.2,0,3.4,0c0.3,0,0.6,0,0.8,0c0.3,0,0.6,0,0.8,0.1c0.3,0,0.6,0.1,0.8,0.1c0.3,0,0.6,0.1,0.8,0.1
							c0.3,0,0.6,0.1,0.8,0.2l0.4,0.1l0.4,0.1c0.3,0.1,0.5,0.2,0.8,0.3c0.3,0.1,0.5,0.3,0.8,0.4l0.3,0.2l-0.3,0.1
							c-0.5,0.2-0.9,0.2-1.4,0.3c-0.5,0.1-0.9,0.1-1.4,0.1c-0.9,0.1-1.8,0.1-2.8,0.1c-1.8,0-3.7,0-5.5-0.1c-1.8-0.1-3.7-0.2-5.5-0.4
							c-0.9-0.1-1.8-0.3-2.7-0.5c-0.5-0.1-0.9-0.2-1.4-0.4c-0.4-0.2-0.9-0.3-1.3-0.7c0-0.1-0.1-0.1-0.1-0.2c0-0.1-0.1-0.2-0.1-0.2
							c0-0.2,0-0.3,0.1-0.5c0.2-0.3,0.4-0.3,0.7-0.4c0.5-0.2,0.9-0.2,1.4-0.3c0.9-0.1,1.9-0.1,2.8-0.1c1.8,0,3.7,0.1,5.5,0.2
							l2.8,0.2c0.9,0,1.8,0.2,2.8,0.3l0.7,0.1l0.7,0.1l1.4,0.3C37.1,91.4,38,91.7,38.9,91.9z"/>
					</g>
				</g>
				<g>
					<g>
						<path class="st21" d="M144.9,95.2c-1.6-0.1-3.2-0.5-4.8-0.7c-1.6-0.3-3.2-0.4-4.8-0.4c-3.2-0.1-6.4-0.1-9.6-0.1l-4.8,0
							c-1.6,0-3.2,0-4.8,0.1l-4.8,0.1c-1.6,0-3.2,0.1-4.8,0.2c-0.8,0.1-1.6,0.2-2.4,0.3c-0.4,0.1-0.8,0.2-1.1,0.3
							c-0.4,0.1-0.7,0.3-1,0.5c-0.3,0.2-0.6,0.6-0.4,0.8c0.1,0.3,0.5,0.5,0.9,0.7c0.7,0.3,1.5,0.5,2.3,0.6c1.6,0.3,3.2,0.4,4.8,0.6
							c1.6,0.2,3.2,0.3,4.8,0.4l1.2,0.1l1.2,0l2.4,0.1c0.8,0,1.6,0,2.4,0l2.4,0c3.2,0,6.4,0.1,9.6,0.2c3.2,0.1,6.4,0.2,9.6,0
							c0.8-0.1,1.6-0.1,2.4-0.2c0.4,0,0.8-0.1,1.2-0.2c0.4-0.1,0.8-0.2,1.1-0.3c0.1,0,0.2-0.1,0.2-0.1c0,0,0,0,0-0.1
							c0-0.1-0.2-0.2-0.4-0.3c-0.3-0.2-0.7-0.3-1.1-0.4c-0.4-0.1-0.8-0.2-1.2-0.3l-1.2-0.3c-3.1-0.6-6.3-0.9-9.5-1.1
							c-3.2-0.2-6.4-0.4-9.6-0.5c-1.6,0-3.2,0-4.8,0c-1.6,0-3.2,0.1-4.8,0.2c-0.8,0-1.6,0.1-2.4,0.2c-0.4,0.1-0.8,0.1-1.1,0.3
							c0,0-0.1,0-0.1,0c0,0,0,0,0,0c0,0,0,0,0,0c0,0,0.1,0.1,0.2,0.1c0.2,0.1,0.4,0.1,0.6,0.1c1.6,0.3,3.2,0.4,4.8,0.3
							c3.2,0,6.4-0.3,9.6-0.2l4.8,0.2l4.8,0.1l0,0.1c-0.3-0.1-0.5-0.3-0.8-0.4c-0.1-0.1-0.3-0.1-0.4-0.2l-0.4-0.1
							c-0.3-0.1-0.6-0.1-0.8-0.2c-0.3-0.1-0.6-0.1-0.9-0.2c-0.3-0.1-0.6-0.1-0.9-0.1c-0.3,0-0.6-0.1-0.9-0.1c-0.3,0-0.6-0.1-0.9-0.1
							c-0.3,0-0.6,0-0.9-0.1c-1.2-0.1-2.3-0.1-3.5-0.1c-1.2,0-2.3,0.1-3.5,0.1c1.2-0.1,2.3-0.2,3.5-0.2c1.2,0,2.3,0,3.5,0
							c0.3,0,0.6,0,0.9,0c0.3,0,0.6,0,0.9,0.1c0.3,0,0.6,0,0.9,0.1c0.3,0,0.6,0.1,0.9,0.1c0.3,0,0.6,0.1,0.9,0.1
							c0.3,0.1,0.6,0.1,0.8,0.2l0.4,0.1c0.1,0,0.3,0.1,0.4,0.2c0.3,0.1,0.5,0.2,0.8,0.4l0.3,0.1l-0.3,0l-4.8-0.1
							c-1.6,0-3.2-0.1-4.8-0.2c-3.2-0.2-6.4,0.2-9.6,0.2l-1.2,0l-1.2-0.1c-0.4,0-0.8-0.1-1.2-0.1c-0.4,0-0.8-0.1-1.2-0.2
							c-0.2,0-0.4-0.1-0.6-0.2c-0.1,0-0.2-0.1-0.3-0.2c0,0-0.1-0.1-0.1-0.1c0-0.1,0-0.1,0-0.2c0.1-0.1,0.1-0.1,0.2-0.1
							c0.4-0.2,0.8-0.2,1.2-0.3c0.8-0.1,1.6-0.2,2.4-0.3c1.6-0.1,3.2-0.2,4.8-0.3c1.6-0.1,3.2-0.1,4.8-0.1c3.2,0.1,6.4,0.3,9.6,0.5
							c3.2,0.2,6.4,0.4,9.6,1l1.2,0.3c0.4,0.1,0.8,0.2,1.2,0.3c0.4,0.1,0.8,0.3,1.2,0.4c0.2,0.1,0.4,0.2,0.6,0.4
							c0,0.1,0.1,0.2,0.1,0.3c0,0.1-0.1,0.2-0.1,0.2c-0.1,0.1-0.2,0.2-0.3,0.2c-0.4,0.2-0.8,0.3-1.2,0.3c-0.4,0.1-0.8,0.1-1.2,0.2
							c-0.8,0.1-1.6,0.1-2.4,0.2c-3.2,0.2-6.4,0.1-9.6,0c-3.2-0.1-6.4-0.2-9.6-0.2l-2.4,0c-0.8,0-1.6,0-2.4,0l-2.4-0.1l-1.2-0.1
							l-1.2-0.1c-1.6-0.1-3.2-0.2-4.8-0.4c-1.6-0.2-3.2-0.3-4.8-0.7c-0.8-0.2-1.6-0.3-2.3-0.7c-0.2-0.1-0.4-0.2-0.5-0.3
							c-0.2-0.1-0.3-0.3-0.4-0.5c-0.1-0.2-0.1-0.5,0.1-0.7c0.1-0.1,0.1-0.2,0.2-0.3c0.1-0.1,0.2-0.1,0.2-0.2
							c0.3-0.2,0.7-0.4,1.1-0.5c0.4-0.1,0.8-0.2,1.2-0.3c0.8-0.2,1.6-0.2,2.4-0.3c1.6-0.1,3.2-0.2,4.8-0.2l4.8-0.1
							c1.6,0,3.2-0.1,4.8,0l4.8,0.1c3.2,0.1,6.4,0,9.6,0.2c1.6,0.1,3.2,0.2,4.8,0.5C141.7,94.7,143.3,95.1,144.9,95.2z"/>
					</g>
				</g>
				<g>
					<g>
						<path class="st21" d="M48.1,101.3l-4.9-0.2l-2.5,0l-1.2,0c-0.4,0-0.8,0-1.2,0c-1.6,0-3.3-0.1-4.9-0.1c-0.4,0-0.8,0-1.2,0
							c-0.4,0-0.8,0.1-1.2,0.1c-0.4,0.1-0.8,0.1-1.2,0.2c-0.2,0-0.4,0.1-0.6,0.2c-0.2,0.1-0.4,0.1-0.6,0.2l0-0.3
							c0.6,0.4,1.3,0.6,2.1,0.7c0.8,0.1,1.5,0.1,2.3,0.1c0.8,0,1.6,0.1,2.3,0.1c0.8,0,1.5,0.1,2.3,0.1c0.8,0,1.5,0,2.3,0l1.2,0
							c0.4,0,0.8,0,1.2,0c0.4,0,0.8,0,1.2,0c0.4,0,0.8,0,1.1-0.1c0.4,0,0.8-0.1,1.2-0.1c0.4,0,0.8,0.3,1.1,0.5l0.1,0.1l-0.1,0.1
							c-0.4,0.4-0.9,0.7-1.5,0.9c-0.5,0.2-1.1,0.3-1.7,0.4c-1.1,0.1-2.3,0.1-3.4,0.1c-0.6,0-1.1,0-1.7,0l-1.7-0.1l-3.3-0.1l-3.3-0.1
							c-0.6,0-1.1,0-1.7,0c-0.6,0-1.1,0-1.7-0.1c-1.1-0.1-2.2-0.1-3.3-0.2l-3.3-0.3l3.3,0.2c1.1,0.1,2.2,0.1,3.3,0.2
							c0.6,0,1.1,0,1.7,0c0.6,0,1.1,0,1.7,0l3.3,0.1l3.3,0.1l1.7,0c0.6,0,1.1,0,1.7,0c1.1,0,2.2,0,3.3-0.1c0.5-0.1,1.1-0.2,1.6-0.4
							c0.5-0.2,1-0.5,1.3-0.8l0,0.3c-0.3-0.2-0.6-0.4-0.9-0.4c-0.3,0-0.7,0-1.1,0.1c-0.4,0.1-0.8,0.1-1.2,0.1c-0.4,0-0.8,0-1.2,0
							c-0.4,0-0.8,0-1.2,0l-1.2,0c-0.8,0-1.6,0-2.3,0c-0.8,0-1.6,0-2.3-0.1c-0.8,0-1.6-0.1-2.3-0.1c-0.8,0-1.6,0-2.3-0.1
							c-0.8-0.1-1.6-0.3-2.3-0.8l-0.3-0.2l0.3-0.1c0.2-0.1,0.4-0.2,0.6-0.2c0.2-0.1,0.4-0.1,0.6-0.2c0.4-0.1,0.8-0.2,1.2-0.2
							c0.4,0,0.8-0.1,1.2-0.1c0.4,0,0.8,0,1.2,0c1.6,0,3.3,0.1,4.9,0.2c0.4,0,0.8,0,1.2,0l1.2,0l2.5,0.1L48.1,101.3z"/>
					</g>
				</g>
			</g>
			<path class="st23" d="M144.3,95.6c0,2.8-1.8,5-4,5L28,101.3c-2.2,0-4-2.2-4.1-5l-0.1-23.5c0-2.8,1.8-5,4-5l112.3-0.6
				c2.2,0,4,2.2,4.1,5L144.3,95.6z"/>
		</g>
		<g>
			<g>
				<g>
					<circle class="st1" cx="83.3" cy="37.7" r="31.2"/>
				</g>
				<g>
					<path class="st2" d="M80.1,61.2L97,65.8c10.4-5.1,17.5-15.7,17.5-28.1c0-4.1-0.8-8.1-2.3-11.7L98,18.6l-9.2,1.3l-0.3,4
						l-3.2,10.1l-7,15.2L80.1,61.2z"/>
				</g>
			</g>
			<g>
				
					<ellipse transform="matrix(1.154287e-02 -0.9999 0.9999 1.154287e-02 28.9273 133.8204)" class="st2" cx="82.2" cy="52.3" rx="8.9" ry="9.7"/>
				<path class="st6" d="M99.1,43.6c-1.8-6.2-1.7-16.4-3-19.4c-1.3-3-4.7,1.3-4.7,1.3l0.1-5.7c2.4-3.9,7.4-1.6,8,2
					c3.6,19.6,13,16.1,9.8,24.6C108,49.9,101,49.8,99.1,43.6z"/>
				<path class="st6" d="M67,43.2c2-6.2,2.1-16.3,3.4-19.3c1.3-3,4.7,1.4,4.7,1.4l0.1-5.7c-2.3-4-7.3-1.8-8,1.8
					c-4,19.5-13.4,15.8-10.4,24.3C58,49.3,65,49.4,67,43.2z"/>
				<path class="st7" d="M92.6,21.7c-0.8-4.1-4.1-5.9-9.3-5.8c-5.2-0.1-8.5,1.5-9.4,5.6c-4.7,22.6-13.1,18.5-12,28.8
					c0.5,5.4,5.6,8.7,10.6,8.2c9.3-0.9,10.4-9,10.4-9s1,8.1,10.2,9.2c5,0.6,10.1-2.5,10.8-7.9C105.3,40.5,96.8,44.4,92.6,21.7z"/>
				<path class="st4" d="M82.7,30.4c0,3.1-7.4,5.8-10.1,5.8c-2.7,0-1-4.7,0.1-8.1c1-2.9,2.9-4.8,5.6-4.8
					C81.1,23.4,82.8,27.3,82.7,30.4z"/>
				<path class="st6" d="M92.7,40.1c0.5,5.3-8.3,6-9.7,9.5c-1.9-3.5-10.1-4.5-9.5-9.7c0.4-3.6,4.4-4.6,9.7-4.5
					C88.4,35.4,92.3,35.9,92.7,40.1z"/>
				
					<ellipse transform="matrix(1.138940e-02 -0.9999 0.9999 1.138940e-02 48.0512 109.1892)" class="st7" cx="79.2" cy="30.3" rx="1.8" ry="1.8"/>
				
					<ellipse transform="matrix(1.146108e-02 -0.9999 0.9999 1.146108e-02 48.056 108.5585)" class="st6" cx="78.9" cy="30" rx="1.5" ry="1.5"/>
				
					<ellipse transform="matrix(1.151989e-02 -0.9999 0.9999 1.151989e-02 48.1918 107.7467)" class="st7" cx="78.6" cy="29.5" rx="0.7" ry="0.7"/>
				
					<ellipse transform="matrix(1.138926e-02 -0.9999 0.9999 1.138926e-02 56.4619 117.895)" class="st24" cx="87.9" cy="30.4" rx="1.8" ry="1.8"/>
				
					<ellipse transform="matrix(1.131768e-02 -0.9999 0.9999 1.131768e-02 56.4788 117.2687)" class="st6" cx="87.5" cy="30.1" rx="1.5" ry="1.5"/>
				
					<ellipse transform="matrix(1.088178e-02 -0.9999 0.9999 1.088178e-02 56.6565 116.4715)" class="st7" cx="87.2" cy="29.6" rx="0.7" ry="0.7"/>
				<path class="st25" d="M75,40.7c0-2.1,2.3-3.8,5-3.7C82.8,37,75,42.8,75,40.7z"/>
				<g>
					
						<ellipse transform="matrix(1.106345e-02 -0.9999 0.9999 1.106345e-02 44.5283 140.8147)" class="st4" cx="93.5" cy="47.9" rx="0.3" ry="0.3"/>
					
						<ellipse transform="matrix(1.196937e-02 -0.9999 0.9999 1.196937e-02 47.765 143.1401)" class="st4" cx="96.3" cy="47.4" rx="0.5" ry="0.5"/>
					
						<ellipse transform="matrix(1.100851e-02 -0.9999 0.9999 1.100851e-02 44.3593 144.9142)" class="st4" cx="95.4" cy="50" rx="0.3" ry="0.3"/>
					
						<ellipse transform="matrix(1.235125e-02 -0.9999 0.9999 1.235125e-02 46.5964 147.7223)" class="st4" cx="98.1" cy="50.3" rx="0.2" ry="0.2"/>
					
						<ellipse transform="matrix(1.171691e-02 -0.9999 0.9999 1.171691e-02 49.5194 147.1671)" class="st4" cx="99.2" cy="48.5" rx="0.2" ry="0.2"/>
					
						<ellipse transform="matrix(1.170133e-02 -0.9999 0.9999 1.170133e-02 40.0998 144.3844)" class="st4" cx="93.1" cy="51.9" rx="0.2" ry="0.2"/>
					
						<ellipse transform="matrix(9.597300e-03 -1 1 9.597300e-03 41.9971 149.6777)" class="st4" cx="96.6" cy="53.6" rx="0.3" ry="0.3"/>
					
						<ellipse transform="matrix(9.636587e-03 -1 1 9.636587e-03 46.0748 150.9745)" class="st4" cx="99.3" cy="52.2" rx="0.2" ry="0.2"/>
				</g>
				<g>
					
						<ellipse transform="matrix(1.305556e-02 -0.9999 0.9999 1.305556e-02 19.4575 116.4133)" class="st4" cx="68.7" cy="48.4" rx="0.3" ry="0.3"/>
					
						<ellipse transform="matrix(1.195420e-02 -0.9999 0.9999 1.195420e-02 22.8527 118.8365)" class="st4" cx="71.6" cy="47.9" rx="0.5" ry="0.5"/>
					
						<ellipse transform="matrix(1.170665e-02 -0.9999 0.9999 1.170665e-02 19.3729 120.5729)" class="st4" cx="70.7" cy="50.5" rx="0.3" ry="0.3"/>
					
						<ellipse transform="matrix(1.237477e-02 -0.9999 0.9999 1.237477e-02 21.6907 123.4164)" class="st4" cx="73.3" cy="50.7" rx="0.2" ry="0.2"/>
					
						<ellipse transform="matrix(1.038559e-02 -0.9999 0.9999 1.038559e-02 24.698 122.9281)" class="st4" cx="74.5" cy="49" rx="0.2" ry="0.2"/>
					
						<ellipse transform="matrix(1.168734e-02 -0.9999 0.9999 1.168734e-02 15.1808 120.0807)" class="st4" cx="68.3" cy="52.4" rx="0.2" ry="0.2"/>
					
						<ellipse transform="matrix(1.179297e-02 -0.9999 0.9999 1.179297e-02 16.8693 125.253)" class="st4" cx="71.8" cy="54.1" rx="0.3" ry="0.3"/>
					
						<ellipse transform="matrix(1.140678e-02 -0.9999 0.9999 1.140678e-02 20.9725 126.5755)" class="st4" cx="74.5" cy="52.7" rx="0.2" ry="0.2"/>
				</g>
			</g>
		</g>
	</g>
	<g id="logo">
		<g>
			<g>
				<path class="st26" d="M40.2,75c1.2,0.5,2.2,1.3,2.9,2.4c0.7,1.1,1.1,2.3,1.1,3.8c0,1.3-0.3,2.5-1,3.6c-0.7,1.1-1.6,2.1-2.8,2.8
					c-1.2,0.7-2.4,1-3.7,1c-0.5,0-0.9-0.1-1.4-0.2l0.1,4.4h-5.1L29.9,76c0.4-0.5,1.3-0.9,2.6-1.3c1.3-0.4,2.5-0.6,3.6-0.6
					C37.7,74.2,39,74.4,40.2,75z M38.4,82.9c0.5-0.5,0.8-1,0.8-1.7c0-0.6-0.2-1.1-0.7-1.6C38,79.2,37.3,79,36.6,79
					c-0.5,0-1,0.1-1.5,0.4l0.1,3.9c0.5,0.2,0.9,0.3,1.3,0.3C37.2,83.6,37.9,83.3,38.4,82.9z"/>
				<path class="st26" d="M55,80.5c1,0.6,1.7,1.5,2.2,2.6c0.5,1.1,0.7,2.4,0.7,3.9l-8.8,0.6c0.2,0.5,0.6,0.9,1,1.2
					c0.4,0.3,0.9,0.5,1.5,0.5c0.6,0,1.1-0.1,1.5-0.3c0.4-0.2,0.7-0.5,0.9-0.9l3.8,1c-0.2,0.8-0.7,1.5-1.3,2.1
					c-0.6,0.6-1.3,1.1-2.2,1.5c-0.9,0.4-1.8,0.5-2.7,0.5c-1.3,0-2.4-0.3-3.5-1c-1.1-0.6-1.9-1.5-2.5-2.6c-0.6-1.1-0.9-2.3-0.9-3.6
					c0-1.3,0.3-2.4,0.9-3.4c0.6-1,1.4-1.7,2.4-2.3c1-0.5,2.2-0.8,3.5-0.8C52.8,79.6,54,79.9,55,80.5z M49.8,83.3
					c-0.4,0.3-0.7,0.8-0.9,1.4l4.6-0.4c-0.1-0.4-0.4-0.8-0.8-1.1c-0.4-0.3-0.9-0.4-1.4-0.4C50.8,82.8,50.3,83,49.8,83.3z"/>
				<path class="st26" d="M69,90.9c-0.5,0.8-1.1,1.3-1.8,1.7c-0.7,0.4-1.6,0.5-2.7,0.5c-1.5,0-2.6-0.3-3.4-1
					c-0.8-0.7-1.1-1.8-1.1-3.4c0-0.5,0-1,0.1-1.8l0.5-3.5l-2,0l-0.2-3.9l2.7,0l0.3-1.9l4.5-0.2l-0.3,2.1l2.5,0l0.5,4l-3.5,0
					l-0.4,3.1c0,0.1,0,0.2,0,0.4c0,0.5,0.1,0.9,0.4,1.2c0.3,0.3,0.6,0.5,1,0.5c0.7,0,1.2-0.4,1.7-1.2L69,90.9z"/>
				<path class="st26" d="M95.7,85c0,1.4-0.4,2.8-1.1,4c-0.8,1.3-1.8,2.3-3.1,3c-1.3,0.8-2.8,1.1-4.4,1.1c-1.7,0-3.3-0.4-4.7-1.3
					c-1.4-0.9-2.6-2-3.5-3.5c-0.9-1.5-1.3-3.1-1.3-4.8c0-1.7,0.4-3.3,1.3-4.8c0.8-1.4,2-2.6,3.5-3.4c1.5-0.8,3.1-1.3,4.9-1.3
					c1.1,0,2.1,0.2,3.2,0.5c1,0.3,1.9,0.7,2.6,1.3c0.7,0.5,1.2,1.1,1.5,1.7l-3.4,2.8c-0.4-0.4-0.9-0.7-1.5-0.9
					c-0.6-0.2-1.3-0.3-2-0.3c-0.9,0-1.7,0.2-2.5,0.6c-0.7,0.4-1.3,0.9-1.7,1.6c-0.4,0.7-0.6,1.5-0.6,2.4c0,0.8,0.2,1.6,0.5,2.2
					c0.4,0.7,0.9,1.2,1.5,1.7c0.7,0.4,1.4,0.6,2.2,0.6c1.1,0,1.9-0.2,2.6-0.6c0.7-0.4,1.1-1,1.3-1.6l-4.6-0.6l0.8-4l8.2,1l0,0
					C95.6,83.2,95.7,84.1,95.7,85z"/>
				<path class="st26" d="M106.6,92.8v-0.9c-0.8,0.9-2,1.3-3.6,1.3c-1.1,0-2-0.3-2.9-0.9c-0.9-0.6-1.6-1.5-2.1-2.5
					c-0.5-1-0.8-2.2-0.8-3.4c0-1.2,0.3-2.3,0.8-3.3s1.3-1.9,2.2-2.5c0.9-0.6,1.8-0.9,2.8-0.9c1.6,0,2.8,0.4,3.5,1.3V80h4.2l0.6,12.8
					H106.6z M105.9,88c0.4-0.4,0.6-1,0.6-1.7c0-0.7-0.2-1.2-0.6-1.6c-0.4-0.4-1-0.6-1.7-0.6c-0.6,0-1.2,0.2-1.6,0.6
					c-0.4,0.4-0.6,0.9-0.6,1.6c0,0.4,0.1,0.7,0.3,1.1c0.2,0.4,0.5,0.7,0.8,0.9c0.3,0.2,0.7,0.4,1.2,0.4
					C105,88.7,105.5,88.5,105.9,88z"/>
				<path class="st26" d="M122.8,90.9c-0.5,0.8-1.1,1.3-1.8,1.7c-0.7,0.4-1.6,0.5-2.7,0.5c-1.5,0-2.6-0.3-3.4-1
					c-0.8-0.7-1.1-1.8-1.1-3.4c0-0.5,0-1,0.1-1.8l0.5-3.5l-2,0l-0.2-3.9l2.7,0l0.3-1.9l4.5-0.2l-0.3,2.1l2.5,0l0.5,4l-3.5,0
					l-0.4,3.1c0,0.1,0,0.2,0,0.4c0,0.5,0.1,0.9,0.4,1.2c0.3,0.3,0.6,0.5,1,0.5c0.7,0,1.2-0.4,1.7-1.2L122.8,90.9z"/>
				<path class="st26" d="M126.8,92.2c-1.1-0.7-2-1.5-2.6-2.6c-0.7-1.1-1-2.3-1-3.5c0-1.2,0.3-2.3,0.9-3.3c0.6-1,1.5-1.8,2.6-2.4
					c1.1-0.6,2.3-0.9,3.7-0.9c1.3,0,2.5,0.3,3.5,0.9c1,0.6,1.8,1.4,2.4,2.4c0.6,1,0.9,2.1,0.9,3.3c0,1.3-0.3,2.5-0.9,3.5
					s-1.5,2-2.5,2.6c-1.1,0.6-2.2,1-3.5,1C129.1,93.2,127.9,92.9,126.8,92.2z M134.4,78.9l-3,0.1l-1.2-1.5L129,79l-2.9,0.1l3-3.2
					l2.8-0.1L134.4,78.9z M131.8,87.9c0.4-0.4,0.6-1,0.6-1.6c0-0.6-0.2-1.1-0.6-1.5c-0.4-0.4-0.9-0.7-1.6-0.7
					c-0.7,0-1.2,0.2-1.6,0.6c-0.4,0.4-0.6,0.9-0.6,1.6s0.2,1.2,0.7,1.6c0.4,0.4,1,0.7,1.6,0.7C130.9,88.5,131.4,88.3,131.8,87.9z"/>
			</g>
		</g>
		<g>
			<path class="st1" d="M43.3,72.9c1.2,0.5,2.2,1.3,2.9,2.4c0.7,1.1,1.1,2.3,1.1,3.8c0,1.3-0.3,2.5-1,3.6c-0.7,1.1-1.6,2.1-2.8,2.8
				c-1.2,0.7-2.4,1-3.7,1c-0.5,0-0.9-0.1-1.4-0.2l0.1,4.4h-5.1L33,73.9c0.4-0.5,1.3-0.9,2.6-1.3c1.3-0.4,2.5-0.6,3.6-0.6
				C40.7,72.1,42.1,72.4,43.3,72.9z M41.5,80.8c0.5-0.5,0.8-1,0.8-1.7c0-0.6-0.2-1.1-0.7-1.6c-0.5-0.4-1.1-0.7-1.9-0.7
				c-0.5,0-1,0.1-1.5,0.4l0.1,3.9c0.5,0.2,0.9,0.3,1.3,0.3C40.3,81.5,40.9,81.3,41.5,80.8z"/>
			<path class="st1" d="M58.1,78.4c1,0.6,1.7,1.5,2.2,2.6c0.5,1.1,0.7,2.4,0.7,3.9l-8.8,0.6c0.2,0.5,0.6,0.9,1,1.2
				c0.4,0.3,0.9,0.5,1.5,0.5c0.6,0,1.1-0.1,1.5-0.3c0.4-0.2,0.7-0.5,0.9-0.9l3.8,1c-0.2,0.8-0.7,1.5-1.3,2.1
				c-0.6,0.6-1.3,1.1-2.2,1.5c-0.9,0.4-1.8,0.5-2.7,0.5c-1.3,0-2.4-0.3-3.5-1c-1.1-0.6-1.9-1.5-2.5-2.6c-0.6-1.1-0.9-2.3-0.9-3.6
				c0-1.3,0.3-2.4,0.9-3.4c0.6-1,1.4-1.7,2.4-2.3c1-0.5,2.2-0.8,3.5-0.8C55.9,77.5,57.1,77.8,58.1,78.4z M52.9,81.2
				c-0.4,0.3-0.7,0.8-0.9,1.4l4.6-0.4c-0.1-0.4-0.4-0.8-0.8-1.1c-0.4-0.3-0.9-0.4-1.4-0.4C53.8,80.7,53.3,80.9,52.9,81.2z"/>
			<path class="st1" d="M72,88.8c-0.5,0.8-1.1,1.3-1.8,1.7c-0.7,0.4-1.6,0.5-2.7,0.5c-1.5,0-2.6-0.3-3.4-1c-0.8-0.7-1.1-1.8-1.1-3.4
				c0-0.5,0-1,0.1-1.8l0.5-3.5l-2,0l-0.2-3.9l2.7,0l0.3-1.9l4.5-0.2l-0.3,2.1l2.5,0l0.5,4l-3.5,0l-0.4,3.1c0,0.1,0,0.2,0,0.4
				c0,0.5,0.1,0.9,0.4,1.2c0.3,0.3,0.6,0.5,1,0.5c0.7,0,1.2-0.4,1.7-1.2L72,88.8z"/>
			<path class="st1" d="M98.8,82.9c0,1.4-0.4,2.8-1.1,4c-0.8,1.3-1.8,2.3-3.1,3c-1.3,0.8-2.8,1.1-4.4,1.1c-1.7,0-3.3-0.4-4.7-1.3
				c-1.4-0.9-2.6-2-3.5-3.5c-0.9-1.5-1.3-3.1-1.3-4.8c0-1.7,0.4-3.3,1.3-4.8c0.8-1.4,2-2.6,3.5-3.4c1.5-0.8,3.1-1.3,4.9-1.3
				c1.1,0,2.1,0.2,3.2,0.5c1,0.3,1.9,0.7,2.6,1.3c0.7,0.5,1.2,1.1,1.5,1.7l-3.4,2.8c-0.4-0.4-0.9-0.7-1.5-0.9
				c-0.6-0.2-1.3-0.3-2-0.3c-0.9,0-1.7,0.2-2.5,0.6c-0.7,0.4-1.3,0.9-1.7,1.6c-0.4,0.7-0.6,1.5-0.6,2.4c0,0.8,0.2,1.6,0.5,2.2
				c0.4,0.7,0.9,1.2,1.5,1.7c0.7,0.4,1.4,0.6,2.2,0.6c1.1,0,1.9-0.2,2.6-0.6c0.7-0.4,1.1-1,1.3-1.6l-4.6-0.6l0.8-4l8.2,1l0,0
				C98.6,81.1,98.8,82,98.8,82.9z"/>
			<path class="st1" d="M109.7,90.7v-0.9c-0.8,0.9-2,1.3-3.6,1.3c-1.1,0-2-0.3-2.9-0.9c-0.9-0.6-1.6-1.5-2.1-2.5
				c-0.5-1-0.8-2.2-0.8-3.4c0-1.2,0.3-2.3,0.8-3.3c0.6-1,1.3-1.9,2.2-2.5c0.9-0.6,1.8-0.9,2.8-0.9c1.6,0,2.8,0.4,3.5,1.3v-0.9h4.2
				l0.6,12.8H109.7z M109,86c0.4-0.4,0.6-1,0.6-1.7c0-0.7-0.2-1.2-0.6-1.6c-0.4-0.4-1-0.6-1.7-0.6c-0.6,0-1.2,0.2-1.6,0.6
				c-0.4,0.4-0.6,0.9-0.6,1.6c0,0.4,0.1,0.7,0.3,1.1c0.2,0.4,0.5,0.7,0.8,0.9c0.3,0.2,0.7,0.4,1.2,0.4C108,86.6,108.6,86.4,109,86z"
				/>
			<path class="st1" d="M125.8,88.8c-0.5,0.8-1.1,1.3-1.8,1.7c-0.7,0.4-1.6,0.5-2.7,0.5c-1.5,0-2.6-0.3-3.4-1
				c-0.8-0.7-1.1-1.8-1.1-3.4c0-0.5,0-1,0.1-1.8l0.5-3.5l-2,0l-0.2-3.9l2.7,0l0.3-1.9l4.5-0.2l-0.3,2.1l2.5,0l0.5,4l-3.5,0l-0.4,3.1
				c0,0.1,0,0.2,0,0.4c0,0.5,0.1,0.9,0.4,1.2c0.3,0.3,0.6,0.5,1,0.5c0.7,0,1.2-0.4,1.7-1.2L125.8,88.8z"/>
			<path class="st1" d="M129.9,90.1c-1.1-0.7-2-1.5-2.6-2.6c-0.7-1.1-1-2.3-1-3.5c0-1.2,0.3-2.3,0.9-3.3c0.6-1,1.5-1.8,2.6-2.4
				s2.3-0.9,3.7-0.9c1.3,0,2.5,0.3,3.5,0.9c1,0.6,1.8,1.4,2.4,2.4c0.6,1,0.9,2.1,0.9,3.3c0,1.3-0.3,2.5-0.9,3.5
				c-0.6,1.1-1.5,2-2.5,2.6c-1.1,0.6-2.2,1-3.5,1C132.1,91.1,130.9,90.8,129.9,90.1z M137.5,76.8l-3,0.1l-1.2-1.5l-1.3,1.5l-2.9,0.1
				l3-3.2l2.8-0.1L137.5,76.8z M134.9,85.8c0.4-0.4,0.6-1,0.6-1.6c0-0.6-0.2-1.1-0.6-1.5c-0.4-0.4-0.9-0.7-1.6-0.7
				c-0.7,0-1.2,0.2-1.6,0.6c-0.4,0.4-0.6,0.9-0.6,1.6s0.2,1.2,0.7,1.6c0.4,0.4,1,0.7,1.6,0.7C133.9,86.5,134.5,86.2,134.9,85.8z"/>
		</g>
	</g>
</g>
</svg>
